
<svg aria-hidden="true" xmlns="http://www.w3.org/2000/svg" width="1273" height="192" viewBox="0 -90 1273 192" fill="none">
<g style="transform: translate(2.5rem, -2rem);" clip-path="url(#clip0_271_2)">
<!-- <rect width="1273" height="192" fill="white"/> -->
<path d="M59.875 2.99999L99.25 138.375H100.75L140.125 2.99999H199L135.625 195H64.375L1 2.99999H59.875ZM251.137 2.99999V195H199.012V2.99999H251.137ZM257.36 195V2.99999H395.735V45H309.485V78H388.61V120H309.485V153H395.36V195H257.36ZM397.857 45V2.99999H564.732V45H506.982V195H455.607V45H397.857Z" fill="#fff" fill-opacity="0.05"/>
<path d="M639.744 195H565.869V2.99999H638.994C658.744 2.99999 675.807 6.84375 690.182 14.5312C704.619 22.1562 715.744 33.1562 723.557 47.5312C731.432 61.8437 735.369 79 735.369 99C735.369 119 731.463 136.187 723.65 150.562C715.838 164.875 704.775 175.875 690.463 183.563C676.15 191.188 659.244 195 639.744 195ZM617.994 150.75H637.869C647.369 150.75 655.463 149.219 662.15 146.156C668.9 143.094 674.025 137.812 677.525 130.312C681.088 122.812 682.869 112.375 682.869 99C682.869 85.625 681.057 75.1875 677.432 67.6875C673.869 60.1875 668.619 54.9062 661.682 51.8437C654.807 48.7812 646.369 47.25 636.369 47.25H617.994V150.75ZM778.764 195H722.514L785.889 2.99999H857.139L920.514 195H864.264L822.264 55.875H820.764L778.764 195ZM768.264 119.25H874.014V158.25H768.264V119.25ZM1086.65 2.99999V195H1043.15L973.776 94.125H972.651V195H920.526V2.99999H964.776L1033.03 103.5H1034.53V2.99999H1086.65ZM1217.52 66.375C1216.7 63.0625 1215.42 60.1562 1213.67 57.6562C1211.92 55.0938 1209.73 52.9375 1207.11 51.1875C1204.55 49.375 1201.55 48.0312 1198.11 47.1562C1194.73 46.2187 1191.02 45.75 1186.95 45.75C1178.2 45.75 1170.73 47.8437 1164.55 52.0312C1158.42 56.2187 1153.73 62.25 1150.48 70.125C1147.3 78 1145.7 87.5 1145.7 98.625C1145.7 109.875 1147.23 119.5 1150.3 127.5C1153.36 135.5 1157.92 141.625 1163.98 145.875C1170.05 150.125 1177.58 152.25 1186.58 152.25C1194.52 152.25 1201.11 151.094 1206.36 148.781C1211.67 146.469 1215.64 143.187 1218.27 138.937C1220.89 134.687 1222.2 129.687 1222.2 123.937L1231.2 124.875H1187.33V87.75H1272.45V114.375C1272.45 131.875 1268.73 146.844 1261.3 159.281C1253.92 171.656 1243.73 181.156 1230.73 187.781C1217.8 194.344 1202.95 197.625 1186.2 197.625C1167.52 197.625 1151.11 193.656 1136.98 185.719C1122.86 177.781 1111.83 166.469 1103.89 151.781C1096.02 137.094 1092.08 119.625 1092.08 99.375C1092.08 83.5 1094.48 69.4375 1099.3 57.1875C1104.17 44.9375 1110.92 34.5937 1119.55 26.1562C1128.17 17.6562 1138.14 11.25 1149.45 6.93749C1160.77 2.56249 1172.89 0.374993 1185.83 0.374993C1197.2 0.374993 1207.77 2 1217.52 5.25C1227.33 8.43749 1235.98 13 1243.48 18.9375C1251.05 24.8125 1257.14 31.7812 1261.77 39.8438C1266.39 47.9062 1269.2 56.75 1270.2 66.375H1217.52Z" fill="#fff" fill-opacity="0.05"/>
</g>
<g clip-path="url(#clip0_271_2)">
<!-- <rect width="1273" height="192" fill="white"/> -->
<path d="M59.875 2.99999L99.25 138.375H100.75L140.125 2.99999H199L135.625 195H64.375L1 2.99999H59.875ZM251.137 2.99999V195H199.012V2.99999H251.137ZM257.36 195V2.99999H395.735V45H309.485V78H388.61V120H309.485V153H395.36V195H257.36ZM397.857 45V2.99999H564.732V45H506.982V195H455.607V45H397.857Z" fill="#F472B6"/>
<path d="M639.744 195H565.869V2.99999H638.994C658.744 2.99999 675.807 6.84375 690.182 14.5312C704.619 22.1562 715.744 33.1562 723.557 47.5312C731.432 61.8437 735.369 79 735.369 99C735.369 119 731.463 136.187 723.65 150.562C715.838 164.875 704.775 175.875 690.463 183.563C676.15 191.188 659.244 195 639.744 195ZM617.994 150.75H637.869C647.369 150.75 655.463 149.219 662.15 146.156C668.9 143.094 674.025 137.812 677.525 130.312C681.088 122.812 682.869 112.375 682.869 99C682.869 85.625 681.057 75.1875 677.432 67.6875C673.869 60.1875 668.619 54.9062 661.682 51.8437C654.807 48.7812 646.369 47.25 636.369 47.25H617.994V150.75ZM778.764 195H722.514L785.889 2.99999H857.139L920.514 195H864.264L822.264 55.875H820.764L778.764 195ZM768.264 119.25H874.014V158.25H768.264V119.25ZM1086.65 2.99999V195H1043.15L973.776 94.125H972.651V195H920.526V2.99999H964.776L1033.03 103.5H1034.53V2.99999H1086.65ZM1217.52 66.375C1216.7 63.0625 1215.42 60.1562 1213.67 57.6562C1211.92 55.0938 1209.73 52.9375 1207.11 51.1875C1204.55 49.375 1201.55 48.0312 1198.11 47.1562C1194.73 46.2187 1191.02 45.75 1186.95 45.75C1178.2 45.75 1170.73 47.8437 1164.55 52.0312C1158.42 56.2187 1153.73 62.25 1150.48 70.125C1147.3 78 1145.7 87.5 1145.7 98.625C1145.7 109.875 1147.23 119.5 1150.3 127.5C1153.36 135.5 1157.92 141.625 1163.98 145.875C1170.05 150.125 1177.58 152.25 1186.58 152.25C1194.52 152.25 1201.11 151.094 1206.36 148.781C1211.67 146.469 1215.64 143.187 1218.27 138.937C1220.89 134.687 1222.2 129.687 1222.2 123.937L1231.2 124.875H1187.33V87.75H1272.45V114.375C1272.45 131.875 1268.73 146.844 1261.3 159.281C1253.92 171.656 1243.73 181.156 1230.73 187.781C1217.8 194.344 1202.95 197.625 1186.2 197.625C1167.52 197.625 1151.11 193.656 1136.98 185.719C1122.86 177.781 1111.83 166.469 1103.89 151.781C1096.02 137.094 1092.08 119.625 1092.08 99.375C1092.08 83.5 1094.48 69.4375 1099.3 57.1875C1104.17 44.9375 1110.92 34.5937 1119.55 26.1562C1128.17 17.6562 1138.14 11.25 1149.45 6.93749C1160.77 2.56249 1172.89 0.374993 1185.83 0.374993C1197.2 0.374993 1207.77 2 1217.52 5.25C1227.33 8.43749 1235.98 13 1243.48 18.9375C1251.05 24.8125 1257.14 31.7812 1261.77 39.8438C1266.39 47.9062 1269.2 56.75 1270.2 66.375H1217.52Z" fill="#DB2777"/>
</g>

<defs>
<clipPath id="clip0_271_2">
<rect width="1273" height="192" fill="white"/>
</clipPath>
</defs>
</svg>